<svg xmlns="http://www.w3.org/2000/svg" version="1.0" width="345.000000pt" height="360.000000pt" viewBox="0 0 345.000000 360.000000" preserveAspectRatio="xMidYMid meet">

<g transform="translate(0.000000,360.000000) scale(0.100000,-0.100000)" fill="#216319" stroke="none">
<path d="M2214 3590 c-25 -10 -147 -140 -210 -223 -101 -134 -174 -335 -159 -436 7 -45 7 -45 20 -21 7 14 16 50 20 80 11 89 33 158 57 175 31 21 40 19 83 -15 21 -16 43 -30 50 -30 6 0 22 23 35 50 32 68 108 146 173 175 57 27 174 47 217 38 103 -20 -21 127 -161 192 -56 26 -89 30 -125 15z" fill="#216319"/>
<path d="M1608 3519 c-21 -5 -69 -24 -107 -44 -44 -21 -97 -39 -143 -46 -40 -6 -85 -17 -100 -25 -41 -21 -68 -62 -68 -103 0 -36 9 -58 64 -153 40 -68 45 -139 16 -220 -28 -78 -23 -104 30 -162 l40 -43 -51 -24 c-102 -47 -237 -236 -222 -310 11 -56 103 -140 193 -175 100 -39 160 -88 211 -174 23 -39 56 -82 73 -97 78 -66 183 -84 338 -59 54 9 114 16 133 16 19 0 35 4 35 9 0 17 -95 79 -202 131 -116 57 -180 105 -238 177 -48 62 -67 99 -135 274 -32 79 -61 148 -66 154 -5 5 -9 16 -9 24 0 26 60 -40 89 -99 16 -30 45 -99 66 -153 66 -171 138 -244 354 -356 68 -35 122 -60 120 -55 -3 5 -19 41 -37 79 -50 106 -138 325 -166 412 -35 110 -46 181 -46 300 0 123 20 226 65 345 60 154 56 225 -16 303 -57 62 -145 91 -221 74z" fill="#216319"/>
<path d="M2646 3371 c-59 -54 -70 -57 -203 -65 -89 -4 -162 -31 -218 -79 -67 -56 -109 -178 -88 -256 l9 -34 43 56 c89 115 202 180 317 181 62 0 80 -4 145 -36 43 -22 96 -59 127 -89 l52 -52 0 55 c0 144 -73 368 -120 368 -5 0 -34 -22 -64 -49z" fill="#216319"/>
<path d="M2915 3275 c-57 -20 -68 -39 -58 -100 4 -27 8 -102 8 -166 0 -111 -1 -118 -34 -181 -18 -37 -30 -71 -27 -77 4 -6 22 -13 41 -17 44 -8 65 5 163 100 99 96 117 130 117 231 0 96 -29 166 -84 202 -39 26 -69 28 -126 8z" fill="#216319"/>
<path d="M1952 3083 c-6 -15 -13 -50 -17 -78 -3 -27 -15 -83 -26 -124 -27 -101 -33 -175 -20 -246 34 -183 190 -333 487 -468 136 -63 147 -65 162 -31 12 25 15 26 62 20 68 -9 119 7 160 50 46 47 101 79 190 109 136 46 212 110 267 224 39 83 42 156 9 225 -32 66 -64 83 -123 67 -50 -14 -85 -40 -113 -87 -18 -28 -23 -52 -24 -119 -1 -75 -4 -87 -31 -126 -65 -92 -263 -214 -373 -229 -51 -7 -72 -20 -72 -47 0 -44 -95 32 -141 112 -16 27 -29 55 -29 62 0 6 25 -4 56 -22 83 -50 146 -62 220 -40 32 9 87 32 121 50 80 44 199 131 207 151 13 35 6 83 -18 111 -23 26 -28 27 -88 23 -34 -2 -108 -4 -163 -4 -94 1 -107 3 -210 44 -129 50 -197 70 -242 70 -29 0 -33 -3 -33 -26 0 -14 22 -81 50 -147 l49 -122 -35 40 c-51 57 -97 161 -139 310 -73 259 -77 270 -106 273 -21 2 -28 -3 -37 -25z" fill="#216319"/>
<path d="M2546 3093 c-4 -4 -55 -10 -113 -13 -105 -6 -106 -6 -134 -40 -16 -18 -33 -46 -38 -63 -9 -26 -9 -28 7 -22 76 33 105 38 217 39 137 1 178 14 183 57 3 22 -2 29 -29 38 -36 12 -82 14 -93 4z" fill="#216319"/>
<path d="M2710 2995 c-49 -51 -118 -69 -226 -60 -102 8 -174 -10 -253 -63 l-54 -37 100 -16 c111 -18 179 -39 268 -81 63 -30 157 -38 195 -18 49 26 71 189 36 268 -10 23 -22 42 -26 42 -3 0 -22 -16 -40 -35z" fill="#216319"/>
<path d="M835 2479 c-82 -34 -95 -48 -95 -106 0 -59 24 -57 81 5 44 46 95 120 88 126 -2 2 -35 -9 -74 -25z" fill="#216319"/>
<path d="M3243 2419 c-26 -9 -129 -88 -161 -122 -24 -25 -24 -25 -8 -96 9 -39 16 -118 17 -178 1 -131 14 -184 50 -197 43 -15 75 1 150 71 55 52 79 84 109 148 52 106 58 153 30 227 -33 89 -133 167 -187 147z" fill="#216319"/>
<path d="M559 2376 c-133 -54 -204 -139 -244 -291 -19 -74 -26 -81 -64 -65 -16 6 -35 9 -40 5 -16 -9 -13 -112 4 -178 22 -84 65 -162 140 -251 68 -82 88 -113 110 -175 l13 -36 21 45 c11 25 21 61 21 80 0 36 -34 116 -89 208 -38 65 -39 73 -2 62 16 -4 32 -6 35 -2 3 3 6 41 6 84 0 77 19 148 39 148 5 0 12 -19 16 -42 9 -52 34 -118 45 -118 5 0 21 19 37 42 58 85 69 49 28 -91 -31 -105 -31 -107 0 -87 27 18 45 14 45 -9 0 -7 -25 -68 -55 -136 -30 -67 -52 -125 -49 -128 3 -3 36 26 74 65 171 180 193 357 78 622 -37 84 -43 108 -45 177 -1 44 -2 83 -3 88 0 15 -67 6 -121 -17z" fill="#216319"/>
<path d="M1940 2362 c0 -17 66 -166 125 -282 76 -148 201 -335 264 -393 67 -63 134 -92 256 -111 55 -8 133 -27 174 -41 42 -14 97 -25 127 -25 45 0 56 4 83 32 57 58 66 112 65 378 0 129 -4 251 -8 271 -8 44 -50 89 -83 89 -41 0 -75 -25 -160 -118 -97 -106 -148 -136 -232 -135 -67 1 -103 16 -276 113 -152 85 -233 139 -292 193 -24 22 -43 35 -43 29z" fill="#216319"/>
<path d="M1310 1967 c-30 -13 -95 -47 -145 -76 -49 -28 -100 -54 -112 -57 -13 -4 -23 -11 -23 -16 0 -24 134 -2 225 36 106 45 191 68 223 61 12 -3 22 -2 22 3 0 11 -39 46 -67 61 -32 16 -61 13 -123 -12z" fill="#216319"/>
<path d="M1900 1825 c-7 -8 -14 -46 -16 -84 -2 -38 -12 -93 -23 -123 -10 -29 -34 -91 -51 -138 -29 -76 -31 -94 -28 -165 3 -47 11 -93 21 -110 21 -40 81 -107 71 -80 -3 11 -9 56 -11 100 -7 111 15 195 89 344 54 108 62 132 63 181 0 34 -6 64 -14 73 -17 21 -84 23 -101 2z" fill="#216319"/>
<path d="M1695 1815 c-23 -8 -58 -34 -84 -62 -120 -133 -177 -187 -243 -234 -148 -104 -300 -161 -335 -126 -14 14 -14 21 1 81 21 85 21 145 0 153 -21 8 -30 -8 -38 -63 -8 -61 -37 -113 -89 -162 -56 -51 -93 -67 -227 -99 -146 -34 -358 -42 -499 -19 -111 19 -165 12 -176 -23 -7 -22 2 -48 19 -54 6 -3 162 -1 346 3 302 8 347 11 455 34 343 73 686 256 948 505 57 55 65 66 50 72 -29 12 -85 9 -128 -6z" fill="#216319"/>
<path d="M2120 1765 c10 -30 28 -112 40 -182 25 -151 44 -216 77 -261 27 -36 81 -67 137 -77 l37 -7 -29 48 c-35 59 -46 89 -71 215 -34 164 -79 249 -155 294 -23 14 -45 25 -49 25 -3 0 3 -25 13 -55z" fill="#216319"/>
<path d="M1127 1190 c-21 -6 -48 -15 -60 -22 -22 -12 -21 -12 8 -19 17 -4 53 -7 80 -8 58 -1 113 -15 140 -35 19 -14 19 -15 -5 -24 -14 -6 -34 -13 -45 -17 -17 -5 -17 -8 -5 -14 8 -5 33 -11 55 -15 68 -12 134 -37 165 -63 45 -37 38 -46 -27 -39 -97 11 -100 -8 -8 -49 128 -58 175 -88 161 -102 -3 -4 -42 -1 -87 7 -61 9 -83 10 -92 1 -14 -14 -8 -25 70 -127 98 -128 161 -291 120 -307 -12 -4 -37 30 -101 141 -47 81 -100 171 -119 201 l-34 54 -5 -79 c-5 -73 -22 -134 -38 -134 -3 0 -12 44 -18 98 -6 53 -19 122 -29 152 l-17 55 -8 -75 c-9 -72 -31 -129 -54 -137 -11 -4 -24 100 -24 196 0 52 -27 117 -59 145 l-21 19 -1 -69 c0 -72 -16 -135 -35 -141 -8 -3 -13 31 -16 105 -7 172 -52 241 -162 250 -70 6 -77 -7 -41 -79 44 -86 53 -122 80 -307 29 -197 50 -271 95 -343 53 -82 104 -112 265 -159 172 -50 284 -118 352 -214 l21 -30 25 50 c44 88 95 238 117 344 70 339 -87 639 -404 767 -67 28 -178 38 -239 23z" fill="#216319"/>
</g>
</svg>